<?xml version="1.0" standalone="no"?><!DOCTYPE svg PUBLIC "-//W3C//DTD SVG 1.1//EN" "http://www.w3.org/Graphics/SVG/1.1/DTD/svg11.dtd"><svg t="1673270407467" class="icon" viewBox="0 0 1024 1024" version="1.1" xmlns="http://www.w3.org/2000/svg" p-id="15014" xmlns:xlink="http://www.w3.org/1999/xlink" width="256" height="256"><path d="M789.333333 448H554.666667v-106.666667h-85.333334v106.666667H234.666667c-46.933333 0-85.333333 38.4-85.333334 85.333333v149.333334h85.333334v-149.333334h234.666666v149.333334h85.333334v-149.333334h234.666666v149.333334h85.333334v-149.333334c0-46.933333-38.4-85.333333-85.333334-85.333333z" fill="#36D1EB" p-id="15015"></path><path d="M576 128v128h-128V128h128m0-85.333333h-128c-46.933333 0-85.333333 38.4-85.333333 85.333333v128c0 46.933333 38.4 85.333333 85.333333 85.333333h128c46.933333 0 85.333333-38.4 85.333333-85.333333V128c0-46.933333-38.4-85.333333-85.333333-85.333333zM576 768v128h-128v-128h128m0-85.333333h-128c-46.933333 0-85.333333 38.4-85.333333 85.333333v128c0 46.933333 38.4 85.333333 85.333333 85.333333h128c46.933333 0 85.333333-38.4 85.333333-85.333333v-128c0-46.933333-38.4-85.333333-85.333333-85.333333zM896 768v128h-128v-128h128m0-85.333333h-128c-46.933333 0-85.333333 38.4-85.333333 85.333333v128c0 46.933333 38.4 85.333333 85.333333 85.333333h128c46.933333 0 85.333333-38.4 85.333333-85.333333v-128c0-46.933333-38.4-85.333333-85.333333-85.333333zM256 768v128H128v-128h128m0-85.333333H128c-46.933333 0-85.333333 38.4-85.333333 85.333333v128c0 46.933333 38.4 85.333333 85.333333 85.333333h128c46.933333 0 85.333333-38.4 85.333333-85.333333v-128c0-46.933333-38.4-85.333333-85.333333-85.333333z" fill="#0558FF" p-id="15016"></path></svg>