<?xml version="1.0" standalone="no"?><!DOCTYPE svg PUBLIC "-//W3C//DTD SVG 1.1//EN" "http://www.w3.org/Graphics/SVG/1.1/DTD/svg11.dtd"><svg t="1673357415287" class="icon" viewBox="0 0 1024 1024" version="1.1" xmlns="http://www.w3.org/2000/svg" p-id="14540" xmlns:xlink="http://www.w3.org/1999/xlink" width="256" height="256"><path d="M142.98635361 332.61984671v581.19612259c0 15.81454138 21.08632928 26.35894199 31.62990592 15.81454056l326.84016384-231.95127008c5.27178873-5.27096475 15.81536536-5.27096475 26.35894199 0l321.56837511 231.95127008c15.81536536 10.54357663 31.62990592 0 31.62990592-15.81454056V332.62067068c0-31.62990592-26.35894199-57.98802393-52.71623519-57.9880231H195.70258881c-26.35811801 0-52.7162352 26.35811801-52.7162352 57.9880231zM849.38456445 195.55747039H174.61625953c-15.81536536 0-31.62990592-15.81454138-31.62990592-31.62990591V121.75490592C142.98635361 100.66857663 158.80089417 90.125 174.61625953 90.125h676.08584032c14.49700598 0 30.31154654 10.54357663 30.31154654 31.62990592v42.17265856c0 15.81536536-15.81454138 31.62990592-31.62990591 31.62990591z" p-id="14541" fill="#28C445"></path></svg>