<?xml version="1.0" standalone="no"?><!DOCTYPE svg PUBLIC "-//W3C//DTD SVG 1.1//EN" "http://www.w3.org/Graphics/SVG/1.1/DTD/svg11.dtd"><svg t="1673270277872" class="icon" viewBox="0 0 1024 1024" version="1.1" xmlns="http://www.w3.org/2000/svg" p-id="8888" xmlns:xlink="http://www.w3.org/1999/xlink" width="256" height="256"><path d="M764.31 540.12H587.8c-5.61 0-10.96 1.12-15.83 3.15-18.61 3.99-32.55 20.54-32.55 40.33v181.41c0 90.26 73.43 163.69 163.67 163.69h61.22c90.26 0 163.69-73.43 163.69-163.69v-61.22c0-90.25-73.43-163.67-163.69-163.67z m81.18 224.9c0 44.76-36.42 81.18-81.18 81.18h-61.22c-44.76 0-81.17-36.42-81.17-81.18V622.63h142.39c44.76 0 81.18 36.41 81.18 81.17v61.22zM452.02 543.26a41.186 41.186 0 0 0-15.82-3.14H259.69C169.43 540.12 96 613.54 96 703.79v61.22c0 90.26 73.43 163.69 163.69 163.69h61.22c90.26 0 163.68-73.43 163.68-163.69V583.6c0.01-19.8-13.95-36.35-32.57-40.34z m-49.93 221.76c0 44.76-36.41 81.18-81.17 81.18H259.7c-44.76 0-81.18-36.42-81.18-81.18V703.8c0-44.75 36.42-81.17 81.18-81.17h142.4v142.39z m-142.4-281.14h176.5c5.61 0 10.96-1.12 15.83-3.15 18.61-3.99 32.55-20.54 32.55-40.33V258.97c0-90.25-73.42-163.67-163.67-163.67h-61.22C169.43 95.3 96 168.72 96 258.97v61.24c0.01 90.25 73.44 163.67 163.69 163.67z m-81.18-224.91c0-44.75 36.42-81.17 81.18-81.17h61.22c44.75 0 81.16 36.41 81.16 81.17v142.4H259.69c-44.76 0-81.18-36.41-81.18-81.17v-61.23zM764.31 95.3h-61.22c-90.26 0-163.69 73.42-163.69 163.67V440.4c0 19.81 13.95 36.35 32.58 40.34a41.186 41.186 0 0 0 15.82 3.14h176.51c90.26 0 163.69-73.42 163.69-163.67v-61.24c0-90.25-73.43-163.67-163.69-163.67z m81.18 224.91c0 44.75-36.42 81.17-81.18 81.17h-142.4v-142.4c0-44.75 36.42-81.17 81.18-81.17h61.22c44.76 0 81.18 36.41 81.18 81.17v61.23z" fill="#307DF3" p-id="8889"></path></svg>