<?xml version="1.0" standalone="no"?><!DOCTYPE svg PUBLIC "-//W3C//DTD SVG 1.1//EN" "http://www.w3.org/Graphics/SVG/1.1/DTD/svg11.dtd"><svg t="1673357273754" class="icon" viewBox="0 0 1024 1024" version="1.1" xmlns="http://www.w3.org/2000/svg" p-id="8227" xmlns:xlink="http://www.w3.org/1999/xlink" width="256" height="256"><path d="M390.8608 136.0896H174.0288c-28.2112 0-51.2 22.9888-51.2 51.2v216.832c0 28.2112 22.9888 51.2 51.2 51.2h216.832c28.2112 0 51.2-22.9888 51.2-51.2V187.2896c0-28.2624-22.9888-51.2-51.2-51.2zM390.8608 535.9104H174.0288c-28.2112 0-51.2 22.9888-51.2 51.2v216.832c0 28.2112 22.9888 51.2 51.2 51.2h216.832c28.2112 0 51.2-22.9888 51.2-51.2v-216.832c0-28.2112-22.9888-51.2-51.2-51.2zM574.6176 455.3216h216.832c28.2112 0 51.2-22.9888 51.2-51.2V187.2896c0-28.2112-22.9888-51.2-51.2-51.2h-216.832c-28.2112 0-51.2 22.9888-51.2 51.2v216.832c0 28.2624 22.9888 51.2 51.2 51.2zM905.1136 867.7376l-72.5504-64.5632c23.3472-29.6448 37.3248-67.0208 37.3248-107.6224 0-96.1536-78.2336-174.4384-174.4384-174.4384s-174.4384 78.2336-174.4384 174.4384 78.2336 174.4384 174.4384 174.4384c40.8576 0 78.3872-14.1312 108.1344-37.7344l74.24 66.0992c3.8912 3.4816 8.7552 5.1712 13.6192 5.1712 5.632 0 11.264-2.304 15.3088-6.8608a20.43904 20.43904 0 0 0-1.6384-28.928z" fill="#66B1FF" p-id="8228"></path></svg>