<svg t="1675180039965" class="icon" viewBox="0 0 1024 1024" version="1.1" xmlns="http://www.w3.org/2000/svg" p-id="13921" width="256" height="256"><path d="M63.999 512.313a447.461 447.414 0 1 0 894.922 0 447.461 447.414 0 1 0-894.922 0Z" fill="#BAE7FF" p-id="13922"></path><path d="M527.45 528.303c-53.29 53.29-133.032 65.391-202.688 37.607 10.292 25.805 26.048 50.228 47.225 71.405 78.346 78.345 201.062 82.65 274.094 9.619 73.032-73.034 68.726-195.749-9.619-274.093-21.177-21.178-45.6-36.933-71.403-47.226 27.782 69.656 15.681 149.398-37.609 202.688z" fill="#FCD22E" p-id="13923"></path><path d="M527.45 528.303c-53.29 53.29-133.032 65.391-202.688 37.607 10.292 25.805 26.048 50.228 47.225 71.405 78.346 78.345 201.062 82.65 274.094 9.619 73.032-73.034 68.726-195.749-9.619-274.093-21.177-21.178-45.6-36.933-71.403-47.226 27.782 69.656 15.681 149.398-37.609 202.688z" fill="#FCD22E" p-id="13924"></path></svg>