<?xml version="1.0" standalone="no"?><!DOCTYPE svg PUBLIC "-//W3C//DTD SVG 1.1//EN" "http://www.w3.org/Graphics/SVG/1.1/DTD/svg11.dtd"><svg t="1675184960377" class="icon" viewBox="0 0 1024 1024" version="1.1" xmlns="http://www.w3.org/2000/svg" p-id="100054" xmlns:xlink="http://www.w3.org/1999/xlink" width="256" height="256"><path d="M512 51.2C257.5104 51.2 51.2 257.5104 51.2 512c0 254.4896 206.3104 460.8 460.8 460.8 254.4896 0 460.8-206.3104 460.8-460.8C972.8 257.5104 766.4896 51.2 512 51.2zM359.744 676.1216l-43.4304 0L316.3136 347.8784l43.4304 0L359.744 676.1216zM698.9696 576.4864c-5.824 19.264-13.2992 35.1872-22.4 47.808-9.1008 12.608-19.0592 22.5408-29.888 29.7856-10.8288 7.2448-23.8848 12.7232-39.1808 16.4608-15.3088 3.7376-32.8832 5.5936-52.736 5.5936l-118.4384 0L436.3264 347.8784l113.0752 0c25.5232 0 45.0048 1.5616 58.432 4.6976 18.8032 4.3264 34.8544 12.16 48.1408 23.5008 17.3184 14.6304 30.2592 33.3312 38.848 56.0896 8.576 22.7712 12.864 48.7808 12.864 78.0288C707.6864 535.1296 704.7808 557.2224 698.9696 576.4864z" p-id="100055" fill="#42ABF9"></path><path d="M604.928 393.3312c-11.648-4.48-30.3744-6.72-56.2048-6.72l-68.9664 0 0 250.7776 70.08 0c21.6448 0 38.6304-2.0096 50.944-6.0416 12.3136-4.032 22.1184-9.7024 29.44-17.024 10.304-10.304 18.3168-24.1408 24.064-41.536 5.7472-17.3824 8.6272-38.4768 8.6272-63.2576 0-34.3168-5.632-60.7104-16.9088-79.1424C634.7392 411.9552 621.0432 399.6032 604.928 393.3312z" p-id="100056" fill="#42ABF9"></path></svg>